<svg width="153" height="50" viewBox="0 0 153 50" fill="none" xmlns="http://www.w3.org/2000/svg">
<path d="M1.8785 6.9115C1.8785 7.83883 1.99767 8.74017 2.236 9.6155C2.47433 10.4865 2.81883 11.3185 3.2695 12.1115C3.2955 12.1592 3.31283 12.2003 3.3215 12.235C3.33017 12.2697 3.3345 12.3043 3.3345 12.339C3.3345 12.3997 3.31933 12.4495 3.289 12.4885C3.25867 12.5275 3.21967 12.5622 3.172 12.5925L2.6585 12.9045C2.3335 12.4062 2.05617 11.9122 1.8265 11.4225C1.60117 10.9328 1.417 10.441 1.274 9.947C1.13533 9.453 1.0335 8.95683 0.9685 8.4585C0.9035 7.95583 0.871 7.44017 0.871 6.9115C0.871 6.38717 0.9035 5.87367 0.9685 5.371C1.0335 4.86833 1.13533 4.37217 1.274 3.8825C1.417 3.3885 1.60117 2.89667 1.8265 2.407C2.05617 1.91733 2.3335 1.42117 2.6585 0.918499L3.172 1.237C3.21967 1.26733 3.25867 1.302 3.289 1.341C3.31933 1.38 3.3345 1.42983 3.3345 1.4905C3.3345 1.5555 3.31283 1.62917 3.2695 1.7115C2.8145 2.50017 2.46783 3.33217 2.2295 4.2075C1.9955 5.08283 1.8785 5.98417 1.8785 6.9115ZM8.12896 3.421V6.1965H10.7745V7.074H8.12896V9.869H7.17996V7.074H4.54746V6.1965H7.17996V3.421H8.12896ZM15.007 7.178C14.656 7.178 14.3223 7.1195 14.006 7.0025C13.694 6.8855 13.4188 6.71433 13.1805 6.489C12.9421 6.25933 12.7515 5.97983 12.6085 5.6505C12.4698 5.31683 12.4005 4.9355 12.4005 4.5065C12.4005 4.09917 12.4763 3.71783 12.628 3.3625C12.7796 3.00717 12.992 2.69733 13.265 2.433C13.538 2.16867 13.863 1.96067 14.24 1.809C14.617 1.65733 15.0308 1.5815 15.4815 1.5815C15.9278 1.5815 16.333 1.65517 16.697 1.8025C17.061 1.94983 17.373 2.15567 17.633 2.42C17.893 2.68433 18.0923 3.00067 18.231 3.369C18.374 3.73733 18.4455 4.14467 18.4455 4.591C18.4455 4.85967 18.4195 5.11533 18.3675 5.358C18.3198 5.59633 18.2483 5.83033 18.153 6.06C18.0576 6.28967 17.9428 6.51933 17.8085 6.749C17.6785 6.97433 17.529 7.20833 17.36 7.451L15.0915 10.727C15.0351 10.8093 14.955 10.8765 14.851 10.9285C14.747 10.9762 14.6278 11 14.4935 11H13.4275L16.2615 7.2885C16.3568 7.16283 16.4456 7.04367 16.528 6.931C16.6103 6.81833 16.6883 6.70567 16.762 6.593C16.5236 6.78367 16.255 6.92883 15.956 7.0285C15.657 7.12817 15.3406 7.178 15.007 7.178ZM17.334 4.4545C17.334 4.16417 17.2863 3.902 17.191 3.668C17.1 3.42967 16.9721 3.22817 16.8075 3.0635C16.6428 2.89883 16.4456 2.77317 16.216 2.6865C15.9906 2.5955 15.7415 2.55 15.4685 2.55C15.1825 2.55 14.9203 2.59767 14.682 2.693C14.448 2.784 14.2465 2.91183 14.0775 3.0765C13.9128 3.24117 13.785 3.43833 13.694 3.668C13.603 3.89767 13.5575 4.149 13.5575 4.422C13.5575 4.71667 13.5986 4.981 13.681 5.215C13.7676 5.44467 13.889 5.63967 14.045 5.8C14.2053 5.96033 14.3981 6.08167 14.6235 6.164C14.8531 6.24633 15.1088 6.2875 15.3905 6.2875C15.7025 6.2875 15.9776 6.23767 16.216 6.138C16.4586 6.034 16.6623 5.8975 16.827 5.7285C16.9916 5.5595 17.1173 5.3645 17.204 5.1435C17.2906 4.9225 17.334 4.69283 17.334 4.4545ZM22.548 7.178C22.197 7.178 21.8633 7.1195 21.547 7.0025C21.235 6.8855 20.9598 6.71433 20.7215 6.489C20.4832 6.25933 20.2925 5.97983 20.1495 5.6505C20.0108 5.31683 19.9415 4.9355 19.9415 4.5065C19.9415 4.09917 20.0173 3.71783 20.169 3.3625C20.3207 3.00717 20.533 2.69733 20.806 2.433C21.079 2.16867 21.404 1.96067 21.781 1.809C22.158 1.65733 22.5718 1.5815 23.0225 1.5815C23.4688 1.5815 23.874 1.65517 24.238 1.8025C24.602 1.94983 24.914 2.15567 25.174 2.42C25.434 2.68433 25.6333 3.00067 25.772 3.369C25.915 3.73733 25.9865 4.14467 25.9865 4.591C25.9865 4.85967 25.9605 5.11533 25.9085 5.358C25.8608 5.59633 25.7893 5.83033 25.694 6.06C25.5987 6.28967 25.4838 6.51933 25.3495 6.749C25.2195 6.97433 25.07 7.20833 24.901 7.451L22.6325 10.727C22.5762 10.8093 22.496 10.8765 22.392 10.9285C22.288 10.9762 22.1688 11 22.0345 11H20.9685L23.8025 7.2885C23.8978 7.16283 23.9867 7.04367 24.069 6.931C24.1513 6.81833 24.2293 6.70567 24.303 6.593C24.0647 6.78367 23.796 6.92883 23.497 7.0285C23.198 7.12817 22.8817 7.178 22.548 7.178ZM24.875 4.4545C24.875 4.16417 24.8273 3.902 24.732 3.668C24.641 3.42967 24.5132 3.22817 24.3485 3.0635C24.1838 2.89883 23.9867 2.77317 23.757 2.6865C23.5317 2.5955 23.2825 2.55 23.0095 2.55C22.7235 2.55 22.4613 2.59767 22.223 2.693C21.989 2.784 21.7875 2.91183 21.6185 3.0765C21.4538 3.24117 21.326 3.43833 21.235 3.668C21.144 3.89767 21.0985 4.149 21.0985 4.422C21.0985 4.71667 21.1397 4.981 21.222 5.215C21.3087 5.44467 21.43 5.63967 21.586 5.8C21.7463 5.96033 21.9392 6.08167 22.1645 6.164C22.3942 6.24633 22.6498 6.2875 22.9315 6.2875C23.2435 6.2875 23.5187 6.23767 23.757 6.138C23.9997 6.034 24.2033 5.8975 24.368 5.7285C24.5327 5.5595 24.6583 5.3645 24.745 5.1435C24.8317 4.9225 24.875 4.69283 24.875 4.4545ZM30.284 11.104C29.8203 11.104 29.3957 11.0433 29.01 10.922C28.6243 10.7963 28.2928 10.6187 28.0155 10.389C27.7382 10.1593 27.5237 9.882 27.372 9.557C27.2203 9.22767 27.1445 8.85933 27.1445 8.452C27.1445 7.854 27.3005 7.36217 27.6125 6.9765C27.9245 6.5865 28.3708 6.30917 28.9515 6.1445C28.4618 5.9625 28.0913 5.69167 27.84 5.332C27.593 4.968 27.4695 4.53467 27.4695 4.032C27.4695 3.68967 27.5367 3.369 27.671 3.07C27.8053 2.771 27.996 2.511 28.243 2.29C28.49 2.069 28.7847 1.89567 29.127 1.77C29.4737 1.64433 29.8593 1.5815 30.284 1.5815C30.7043 1.5815 31.0878 1.64433 31.4345 1.77C31.7812 1.89567 32.078 2.069 32.325 2.29C32.572 2.511 32.7627 2.771 32.897 3.07C33.0313 3.369 33.0985 3.68967 33.0985 4.032C33.0985 4.53467 32.9728 4.968 32.7215 5.332C32.4702 5.69167 32.1018 5.9625 31.6165 6.1445C32.1972 6.30917 32.6435 6.5865 32.9555 6.9765C33.2675 7.36217 33.4235 7.854 33.4235 8.452C33.4235 8.85933 33.3455 9.22767 33.1895 9.557C33.0378 9.882 32.8233 10.1593 32.546 10.389C32.273 10.6187 31.9437 10.7963 31.558 10.922C31.1723 11.0433 30.7477 11.104 30.284 11.104ZM30.284 10.181C30.5873 10.181 30.8582 10.1398 31.0965 10.0575C31.3392 9.97083 31.5428 9.85167 31.7075 9.7C31.8765 9.544 32.0043 9.35983 32.091 9.1475C32.182 8.93083 32.2275 8.6925 32.2275 8.4325C32.2275 8.11183 32.1733 7.83883 32.065 7.6135C31.961 7.38383 31.818 7.1975 31.636 7.0545C31.4583 6.9115 31.2525 6.8075 31.0185 6.7425C30.7845 6.67317 30.5397 6.6385 30.284 6.6385C30.0283 6.6385 29.7835 6.67317 29.5495 6.7425C29.3155 6.8075 29.1075 6.9115 28.9255 7.0545C28.7478 7.1975 28.6048 7.38383 28.4965 7.6135C28.3925 7.83883 28.3405 8.11183 28.3405 8.4325C28.3405 8.6925 28.3838 8.93083 28.4705 9.1475C28.5615 9.35983 28.6893 9.544 28.854 9.7C29.023 9.85167 29.2267 9.97083 29.465 10.0575C29.7077 10.1398 29.9807 10.181 30.284 10.181ZM30.284 5.709C30.5873 5.709 30.8452 5.6635 31.0575 5.5725C31.2742 5.47717 31.4497 5.35367 31.584 5.202C31.7183 5.046 31.8158 4.86833 31.8765 4.669C31.9372 4.46967 31.9675 4.26383 31.9675 4.0515C31.9675 3.83483 31.9307 3.63117 31.857 3.4405C31.7877 3.24983 31.6815 3.083 31.5385 2.94C31.3998 2.797 31.2243 2.68433 31.012 2.602C30.804 2.51967 30.5613 2.4785 30.284 2.4785C30.0067 2.4785 29.7618 2.51967 29.5495 2.602C29.3415 2.68433 29.166 2.797 29.023 2.94C28.8843 3.083 28.7782 3.24983 28.7045 3.4405C28.6352 3.63117 28.6005 3.83483 28.6005 4.0515C28.6005 4.26383 28.6308 4.46967 28.6915 4.669C28.7522 4.86833 28.8497 5.046 28.984 5.202C29.1183 5.35367 29.2917 5.47717 29.504 5.5725C29.7207 5.6635 29.9807 5.709 30.284 5.709ZM37.63 7.178C37.279 7.178 36.9454 7.1195 36.629 7.0025C36.317 6.8855 36.0419 6.71433 35.8035 6.489C35.5652 6.25933 35.3745 5.97983 35.2315 5.6505C35.0929 5.31683 35.0235 4.9355 35.0235 4.5065C35.0235 4.09917 35.0994 3.71783 35.251 3.3625C35.4027 3.00717 35.615 2.69733 35.888 2.433C36.161 2.16867 36.486 1.96067 36.863 1.809C37.24 1.65733 37.6539 1.5815 38.1045 1.5815C38.5509 1.5815 38.956 1.65517 39.32 1.8025C39.684 1.94983 39.996 2.15567 40.256 2.42C40.516 2.68433 40.7154 3.00067 40.854 3.369C40.997 3.73733 41.0685 4.14467 41.0685 4.591C41.0685 4.85967 41.0425 5.11533 40.9905 5.358C40.9429 5.59633 40.8714 5.83033 40.776 6.06C40.6807 6.28967 40.5659 6.51933 40.4315 6.749C40.3015 6.97433 40.152 7.20833 39.983 7.451L37.7145 10.727C37.6582 10.8093 37.578 10.8765 37.474 10.9285C37.37 10.9762 37.2509 11 37.1165 11H36.0505L38.8845 7.2885C38.9799 7.16283 39.0687 7.04367 39.151 6.931C39.2334 6.81833 39.3114 6.70567 39.385 6.593C39.1467 6.78367 38.878 6.92883 38.579 7.0285C38.28 7.12817 37.9637 7.178 37.63 7.178ZM39.957 4.4545C39.957 4.16417 39.9094 3.902 39.814 3.668C39.723 3.42967 39.5952 3.22817 39.4305 3.0635C39.2659 2.89883 39.0687 2.77317 38.839 2.6865C38.6137 2.5955 38.3645 2.55 38.0915 2.55C37.8055 2.55 37.5434 2.59767 37.305 2.693C37.071 2.784 36.8695 2.91183 36.7005 3.0765C36.5359 3.24117 36.408 3.43833 36.317 3.668C36.226 3.89767 36.1805 4.149 36.1805 4.422C36.1805 4.71667 36.2217 4.981 36.304 5.215C36.3907 5.44467 36.512 5.63967 36.668 5.8C36.8284 5.96033 37.0212 6.08167 37.2465 6.164C37.4762 6.24633 37.7319 6.2875 38.0135 6.2875C38.3255 6.2875 38.6007 6.23767 38.839 6.138C39.0817 6.034 39.2854 5.8975 39.45 5.7285C39.6147 5.5595 39.7404 5.3645 39.827 5.1435C39.9137 4.9225 39.957 4.69283 39.957 4.4545ZM43.468 10.116H45.47V3.7655C45.47 3.57483 45.4765 3.382 45.4895 3.187L43.8255 4.6105C43.7822 4.64517 43.7389 4.67117 43.6955 4.6885C43.6522 4.7015 43.611 4.708 43.572 4.708C43.507 4.708 43.4485 4.695 43.3965 4.669C43.3445 4.63867 43.3055 4.604 43.2795 4.565L42.9155 4.0645L45.6845 1.666H46.627V10.116H48.46V11H43.468V10.116ZM51.0806 6.9115C51.0806 5.98417 50.9614 5.08283 50.7231 4.2075C50.4891 3.33217 50.1446 2.50017 49.6896 1.7115C49.6462 1.62917 49.6246 1.5555 49.6246 1.4905C49.6246 1.42983 49.6397 1.38 49.6701 1.341C49.7004 1.302 49.7394 1.26733 49.7871 1.237L50.3006 0.918499C50.6256 1.42117 50.9007 1.91733 51.1261 2.407C51.3557 2.89667 51.5399 3.3885 51.6786 3.8825C51.8216 4.37217 51.9256 4.86833 51.9906 5.371C52.0556 5.87367 52.0881 6.38717 52.0881 6.9115C52.0881 7.44017 52.0556 7.95583 51.9906 8.4585C51.9256 8.95683 51.8216 9.453 51.6786 9.947C51.5399 10.441 51.3557 10.9328 51.1261 11.4225C50.9007 11.9122 50.6256 12.4062 50.3006 12.9045L49.7871 12.5925C49.7394 12.5622 49.7004 12.5275 49.6701 12.4885C49.6397 12.4495 49.6246 12.3997 49.6246 12.339C49.6246 12.3043 49.6289 12.2697 49.6376 12.235C49.6462 12.2003 49.6636 12.1592 49.6896 12.1115C50.1402 11.3185 50.4847 10.4865 50.7231 9.6155C50.9614 8.74017 51.0806 7.83883 51.0806 6.9115ZM10.08 25.432C11.232 25.432 12.256 25.5973 13.152 25.928C14.048 26.248 14.8053 26.6853 15.424 27.24C16.0427 27.7947 16.512 28.44 16.832 29.176C17.152 29.9013 17.312 30.6693 17.312 31.48C17.312 32.216 17.2373 32.8667 17.088 33.432C16.9387 33.9867 16.7147 34.472 16.416 34.888C16.128 35.2933 15.7653 35.64 15.328 35.928C14.9013 36.216 14.4107 36.456 13.856 36.648C16.4373 37.544 17.728 39.2987 17.728 41.912C17.728 43.1493 17.504 44.2267 17.056 45.144C16.608 46.0613 16.0053 46.824 15.248 47.432C14.5013 48.04 13.632 48.4987 12.64 48.808C11.648 49.1067 10.6133 49.256 9.536 49.256C8.42667 49.256 7.44 49.1387 6.576 48.904C5.712 48.6587 4.944 48.2853 4.272 47.784C3.6 47.272 3.008 46.6213 2.496 45.832C1.99467 45.0427 1.55733 44.104 1.184 43.016L3.392 42.12C3.584 42.0347 3.77067 41.976 3.952 41.944C4.144 41.912 4.33067 41.896 4.512 41.896C4.85333 41.896 5.15733 41.9653 5.424 42.104C5.70133 42.232 5.90933 42.424 6.048 42.68C6.528 43.5653 7.03467 44.2107 7.568 44.616C8.112 45.0107 8.74667 45.208 9.472 45.208C10.0267 45.208 10.5067 45.1173 10.912 44.936C11.328 44.744 11.6693 44.504 11.936 44.216C12.2133 43.9173 12.4213 43.5813 12.56 43.208C12.6987 42.8347 12.768 42.456 12.768 42.072C12.768 41.5707 12.7307 41.1227 12.656 40.728C12.592 40.3227 12.4 39.976 12.08 39.688C11.76 39.4 11.2747 39.1813 10.624 39.032C9.984 38.872 9.088 38.792 7.936 38.792V35.368C8.90667 35.368 9.69067 35.2933 10.288 35.144C10.8853 34.9947 11.344 34.792 11.664 34.536C11.9947 34.2693 12.2133 33.9493 12.32 33.576C12.4267 33.2027 12.48 32.792 12.48 32.344C12.48 31.4267 12.256 30.7227 11.808 30.232C11.3707 29.7307 10.6987 29.48 9.792 29.48C9.41867 29.48 9.07733 29.5333 8.768 29.64C8.45867 29.7467 8.18133 29.8907 7.936 30.072C7.69067 30.2533 7.47733 30.4667 7.296 30.712C7.12533 30.9573 6.98667 31.224 6.88 31.512C6.70933 31.992 6.49067 32.3387 6.224 32.552C5.968 32.7653 5.616 32.872 5.168 32.872C5.06133 32.872 4.944 32.8667 4.816 32.856C4.69867 32.8453 4.576 32.8293 4.448 32.808L1.824 32.344C1.99467 31.1813 2.32 30.168 2.8 29.304C3.29067 28.44 3.89333 27.72 4.608 27.144C5.33333 26.568 6.16 26.1413 7.088 25.864C8.016 25.576 9.01333 25.432 10.08 25.432ZM29.5705 34.232C30.4132 34.232 31.2452 34.3707 32.0665 34.648C32.8878 34.9253 33.6238 35.352 34.2745 35.928C34.9252 36.504 35.4478 37.2347 35.8425 38.12C36.2478 38.9947 36.4505 40.0293 36.4505 41.224C36.4505 42.312 36.2478 43.3467 35.8425 44.328C35.4372 45.2987 34.8612 46.152 34.1145 46.888C33.3785 47.6133 32.4878 48.1893 31.4425 48.616C30.3972 49.0427 29.2398 49.256 27.9705 49.256C26.6692 49.256 25.5012 49.0533 24.4665 48.648C23.4318 48.232 22.5518 47.656 21.8265 46.92C21.1118 46.184 20.5625 45.304 20.1785 44.28C19.8052 43.256 19.6185 42.1307 19.6185 40.904C19.6185 39.7413 19.8425 38.584 20.2905 37.432C20.7385 36.28 21.3998 35.1067 22.2745 33.912L27.5225 26.824C27.7572 26.504 28.1092 26.2373 28.5785 26.024C29.0478 25.8 29.5812 25.688 30.1785 25.688H34.5945L27.6825 33.944C27.5758 34.0613 27.4692 34.184 27.3625 34.312C27.2665 34.4293 27.1705 34.5467 27.0745 34.664C27.4478 34.5253 27.8372 34.4187 28.2425 34.344C28.6585 34.2693 29.1012 34.232 29.5705 34.232ZM24.3865 41.576C24.3865 42.152 24.4558 42.6693 24.5945 43.128C24.7332 43.5867 24.9465 43.9813 25.2345 44.312C25.5225 44.6427 25.8852 44.8987 26.3225 45.08C26.7598 45.2507 27.2772 45.336 27.8745 45.336C28.3865 45.336 28.8612 45.24 29.2985 45.048C29.7465 44.856 30.1305 44.5947 30.4505 44.264C30.7705 43.9227 31.0212 43.528 31.2025 43.08C31.3945 42.6213 31.4905 42.1253 31.4905 41.592C31.4905 40.9947 31.3998 40.4613 31.2185 39.992C31.0478 39.5227 30.8025 39.128 30.4825 38.808C30.1625 38.488 29.7732 38.2427 29.3145 38.072C28.8665 37.9013 28.3652 37.816 27.8105 37.816C27.3092 37.816 26.8505 37.9067 26.4345 38.088C26.0185 38.2587 25.6558 38.5093 25.3465 38.84C25.0478 39.1707 24.8132 39.5653 24.6425 40.024C24.4718 40.4827 24.3865 41 24.3865 41.576ZM55.045 37.336C55.045 39.3733 54.8263 41.1387 54.389 42.632C53.9517 44.1253 53.3437 45.3627 52.565 46.344C51.797 47.3253 50.8797 48.056 49.813 48.536C48.757 49.016 47.6103 49.256 46.373 49.256C45.1357 49.256 43.989 49.016 42.933 48.536C41.8877 48.056 40.981 47.3253 40.213 46.344C39.445 45.3627 38.8423 44.1253 38.405 42.632C37.9783 41.1387 37.765 39.3733 37.765 37.336C37.765 35.2987 37.9783 33.5333 38.405 32.04C38.8423 30.5467 39.445 29.3093 40.213 28.328C40.981 27.3467 41.8877 26.6213 42.933 26.152C43.989 25.672 45.1357 25.432 46.373 25.432C47.6103 25.432 48.757 25.672 49.813 26.152C50.8797 26.6213 51.797 27.3467 52.565 28.328C53.3437 29.3093 53.9517 30.5467 54.389 32.04C54.8263 33.5333 55.045 35.2987 55.045 37.336ZM49.925 37.336C49.925 35.7253 49.8237 34.408 49.621 33.384C49.4183 32.3493 49.1463 31.5387 48.805 30.952C48.4743 30.3653 48.0957 29.9653 47.669 29.752C47.2423 29.528 46.8103 29.416 46.373 29.416C45.9357 29.416 45.5037 29.528 45.077 29.752C44.661 29.9653 44.2877 30.3653 43.957 30.952C43.637 31.5387 43.3757 32.3493 43.173 33.384C42.981 34.408 42.885 35.7253 42.885 37.336C42.885 38.9573 42.981 40.28 43.173 41.304C43.3757 42.328 43.637 43.1387 43.957 43.736C44.2877 44.3227 44.661 44.728 45.077 44.952C45.5037 45.1653 45.9357 45.272 46.373 45.272C46.8103 45.272 47.2423 45.1653 47.669 44.952C48.0957 44.728 48.4743 44.3227 48.805 43.736C49.1463 43.1387 49.4183 42.328 49.621 41.304C49.8237 40.28 49.925 38.9573 49.925 37.336ZM57.2875 37.272H65.9275V41.272H57.2875V37.272ZM85.2273 25.688V27.768C85.2273 28.3547 85.1633 28.8293 85.0353 29.192C84.9073 29.5547 84.7846 29.864 84.6673 30.12L76.5233 47.368C76.3099 47.8267 75.9953 48.216 75.5793 48.536C75.1633 48.8453 74.6139 49 73.9313 49H70.3153L78.6353 32.312C78.8593 31.8533 79.0993 31.4427 79.3553 31.08C79.6219 30.7173 79.9099 30.3707 80.2193 30.04H69.9633C69.8139 30.04 69.6699 30.0133 69.5312 29.96C69.4033 29.896 69.2859 29.816 69.1793 29.72C69.0833 29.6133 69.0033 29.496 68.9393 29.368C68.8753 29.2293 68.8433 29.0907 68.8433 28.952V25.688H85.2273ZM103.79 25.688V27.768C103.79 28.3547 103.726 28.8293 103.598 29.192C103.47 29.5547 103.347 29.864 103.23 30.12L95.0858 47.368C94.8724 47.8267 94.5578 48.216 94.1418 48.536C93.7258 48.8453 93.1764 49 92.4938 49H88.8778L97.1978 32.312C97.4218 31.8533 97.6618 31.4427 97.9178 31.08C98.1844 30.7173 98.4724 30.3707 98.7818 30.04H88.5258C88.3764 30.04 88.2324 30.0133 88.0938 29.96C87.9658 29.896 87.8484 29.816 87.7418 29.72C87.6458 29.6133 87.5658 29.496 87.5018 29.368C87.4378 29.2293 87.4058 29.0907 87.4058 28.952V25.688H103.79ZM106.256 37.272H114.896V41.272H106.256V37.272ZM134.42 37.336C134.42 39.3733 134.201 41.1387 133.764 42.632C133.327 44.1253 132.719 45.3627 131.94 46.344C131.172 47.3253 130.255 48.056 129.188 48.536C128.132 49.016 126.985 49.256 125.748 49.256C124.511 49.256 123.364 49.016 122.308 48.536C121.263 48.056 120.356 47.3253 119.588 46.344C118.82 45.3627 118.217 44.1253 117.78 42.632C117.353 41.1387 117.14 39.3733 117.14 37.336C117.14 35.2987 117.353 33.5333 117.78 32.04C118.217 30.5467 118.82 29.3093 119.588 28.328C120.356 27.3467 121.263 26.6213 122.308 26.152C123.364 25.672 124.511 25.432 125.748 25.432C126.985 25.432 128.132 25.672 129.188 26.152C130.255 26.6213 131.172 27.3467 131.94 28.328C132.719 29.3093 133.327 30.5467 133.764 32.04C134.201 33.5333 134.42 35.2987 134.42 37.336ZM129.3 37.336C129.3 35.7253 129.199 34.408 128.996 33.384C128.793 32.3493 128.521 31.5387 128.18 30.952C127.849 30.3653 127.471 29.9653 127.044 29.752C126.617 29.528 126.185 29.416 125.748 29.416C125.311 29.416 124.879 29.528 124.452 29.752C124.036 29.9653 123.663 30.3653 123.332 30.952C123.012 31.5387 122.751 32.3493 122.548 33.384C122.356 34.408 122.26 35.7253 122.26 37.336C122.26 38.9573 122.356 40.28 122.548 41.304C122.751 42.328 123.012 43.1387 123.332 43.736C123.663 44.3227 124.036 44.728 124.452 44.952C124.879 45.1653 125.311 45.272 125.748 45.272C126.185 45.272 126.617 45.1653 127.044 44.952C127.471 44.728 127.849 44.3227 128.18 43.736C128.521 43.1387 128.793 42.328 128.996 41.304C129.199 40.28 129.3 38.9573 129.3 37.336ZM152.983 37.336C152.983 39.3733 152.764 41.1387 152.326 42.632C151.889 44.1253 151.281 45.3627 150.503 46.344C149.735 47.3253 148.817 48.056 147.751 48.536C146.695 49.016 145.548 49.256 144.311 49.256C143.073 49.256 141.927 49.016 140.871 48.536C139.825 48.056 138.919 47.3253 138.151 46.344C137.383 45.3627 136.78 44.1253 136.343 42.632C135.916 41.1387 135.703 39.3733 135.703 37.336C135.703 35.2987 135.916 33.5333 136.343 32.04C136.78 30.5467 137.383 29.3093 138.151 28.328C138.919 27.3467 139.825 26.6213 140.871 26.152C141.927 25.672 143.073 25.432 144.311 25.432C145.548 25.432 146.695 25.672 147.751 26.152C148.817 26.6213 149.735 27.3467 150.503 28.328C151.281 29.3093 151.889 30.5467 152.326 32.04C152.764 33.5333 152.983 35.2987 152.983 37.336ZM147.863 37.336C147.863 35.7253 147.761 34.408 147.559 33.384C147.356 32.3493 147.084 31.5387 146.743 30.952C146.412 30.3653 146.033 29.9653 145.607 29.752C145.18 29.528 144.748 29.416 144.311 29.416C143.873 29.416 143.441 29.528 143.015 29.752C142.599 29.9653 142.225 30.3653 141.895 30.952C141.575 31.5387 141.313 32.3493 141.111 33.384C140.919 34.408 140.823 35.7253 140.823 37.336C140.823 38.9573 140.919 40.28 141.111 41.304C141.313 42.328 141.575 43.1387 141.895 43.736C142.225 44.3227 142.599 44.728 143.015 44.952C143.441 45.1653 143.873 45.272 144.311 45.272C144.748 45.272 145.18 45.1653 145.607 44.952C146.033 44.728 146.412 44.3227 146.743 43.736C147.084 43.1387 147.356 42.328 147.559 41.304C147.761 40.28 147.863 38.9573 147.863 37.336Z" fill="#131A22"/>
</svg>
