<svg width="32" height="27" viewBox="0 0 32 27" fill="none" xmlns="http://www.w3.org/2000/svg">
<path fill-rule="evenodd" clip-rule="evenodd" d="M16.8464 16.9342L18.8547 18.9212L22.3734 15.4399C23.7239 14.1038 23.7239 11.9369 22.3734 10.6008L18.8198 7.08508L16.8115 9.07202L18.3568 10.6008C19.7073 11.9369 19.7073 14.1038 18.3568 15.4399L16.8464 16.9342Z" fill="#F15A22"/>
<path fill-rule="evenodd" clip-rule="evenodd" d="M13.1814 20.561L11.6929 22.0324L5.02949 15.4412C3.679 14.1038 3.679 11.9382 5.02949 10.6021L11.6916 4.00963L13.144 5.44655L15.1523 3.45962L11.6929 0.0357666L1.01286 10.6008C-0.337621 11.9369 -0.337621 14.1038 1.01286 15.4399L11.6916 26.005L15.1871 22.5467L13.1814 20.561Z" fill="#F26522"/>
<path fill-rule="evenodd" clip-rule="evenodd" d="M9.62712 10.5651C8.27664 11.9012 8.27664 14.068 9.62712 15.4042L20.3072 25.9705L30.9872 15.4042C32.3377 14.068 32.3377 11.9012 30.9872 10.5651L20.3072 0L9.62712 10.5651ZM26.9693 10.5651C28.3198 11.9012 28.3198 14.068 26.9693 15.4042L20.3059 21.9966L13.6425 15.4042C12.292 14.068 12.292 11.9012 13.6425 10.5651L20.3059 3.97387L26.9693 10.5651Z" fill="#F26522"/>
</svg>
