<svg width="11" height="14" viewBox="0 0 11 14" fill="none" xmlns="http://www.w3.org/2000/svg">
<path d="M10.5885 0.558716V8.31651C10.5885 8.97037 10.4625 9.586 10.2123 10.1614C9.96222 10.7368 9.61652 11.2398 9.17525 11.6703C8.73397 12.1008 8.21136 12.4409 7.60537 12.6883C6.99938 12.9358 6.33442 13.0605 5.61252 13.0605C4.93942 13.0605 4.30292 12.9458 3.70303 12.7165C3.10315 12.4851 2.57647 12.1672 2.12502 11.7628C1.67155 11.3565 1.31365 10.8676 1.04929 10.2922C0.784931 9.71677 0.654785 9.08303 0.654785 8.39296V0.558716H2.45445V8.46337C2.45445 8.94824 2.5419 9.38682 2.72085 9.78115C2.89776 10.1755 3.13772 10.5155 3.43868 10.7992C3.73761 11.0848 4.08127 11.3021 4.46764 11.453C4.85198 11.6039 5.24648 11.6804 5.65318 11.6804C6.10462 11.6804 6.5276 11.5979 6.92007 11.4349C7.31254 11.272 7.65214 11.0466 7.93887 10.7629C8.22559 10.4793 8.45335 10.1453 8.61806 9.76506C8.78278 9.3828 8.86615 8.97439 8.86615 8.53781V0.558716H10.5885Z" fill="black"/>
</svg>
