<svg width="10" height="13" viewBox="0 0 10 13" fill="none" xmlns="http://www.w3.org/2000/svg">
<path d="M7.24986 12.9136C6.99363 12.3825 6.68657 11.8152 6.33273 11.2156C5.97687 10.6161 5.62304 10.0608 5.26717 9.55381C4.9113 9.0448 4.57577 8.62432 4.25651 8.29035C3.93724 7.95638 3.68712 7.78939 3.5041 7.78939H2.27382V12.9136H0.362305V0.556702H4.1833C4.72218 0.556702 5.2204 0.6412 5.67997 0.810198C6.13955 0.979195 6.53405 1.21861 6.86348 1.52844C7.19291 1.83625 7.45524 2.21248 7.64435 2.65509C7.83347 3.0977 7.92905 3.59061 7.92905 4.13583C7.92905 4.90034 7.72773 5.56627 7.32306 6.13563C6.91839 6.70499 6.3734 7.10536 5.6881 7.33471C6.00737 7.56406 6.31036 7.8759 6.59709 8.27023C6.88585 8.66456 7.17055 9.07901 7.45117 9.51558L7.67079 9.86162L9.34235 12.9136H7.24986ZM4.08162 6.40925C4.37648 6.40925 4.64084 6.34889 4.87673 6.22818C5.11059 6.10747 5.30987 5.9445 5.47662 5.74734C5.64337 5.54615 5.76945 5.31479 5.85485 5.04721C5.9423 4.78164 5.98297 4.49595 5.98297 4.19417C5.98297 3.86624 5.92806 3.56647 5.81622 3.29486C5.70641 3.02125 5.55796 2.78586 5.37291 2.58668C5.18786 2.38751 4.97231 2.22857 4.72625 2.11389C4.48019 1.99922 4.21583 1.94087 3.93317 1.94087H2.27179V6.41126H4.08162V6.40925Z" fill="black"/>
</svg>
