<svg width="13" height="14" viewBox="0 0 13 14" fill="none" xmlns="http://www.w3.org/2000/svg">
<path d="M6.65266 0.429932C7.52097 0.429932 8.32625 0.584846 9.06848 0.894675C9.80868 1.20249 10.4513 1.63504 10.9963 2.19233C11.5412 2.74761 11.9662 3.41354 12.2733 4.18811C12.5783 4.96269 12.7329 5.81371 12.7329 6.74521C12.7329 7.71292 12.5743 8.58607 12.255 9.36869C11.9378 10.1473 11.5026 10.8112 10.9515 11.3544C10.4004 11.8996 9.75377 12.3201 9.01357 12.6159C8.27337 12.9136 7.4803 13.0605 6.63638 13.0605C5.76604 13.0605 4.95873 12.9096 4.21039 12.6058C3.46206 12.304 2.8215 11.8775 2.28262 11.3262C1.74373 10.777 1.32076 10.1131 1.01573 9.33851C0.708669 8.56595 0.556152 7.71292 0.556152 6.78142C0.556152 5.83584 0.712737 4.97476 1.02387 4.19616C1.335 3.41555 1.76406 2.74761 2.30905 2.19032C2.85403 1.63303 3.49663 1.20048 4.23683 0.892663C4.97907 0.584846 5.78434 0.429932 6.65266 0.429932ZM6.65266 11.6783C7.27695 11.6783 7.8382 11.5536 8.33235 11.3061C8.82853 11.0587 9.25353 10.7146 9.6094 10.2781C9.96527 9.84148 10.2378 9.32443 10.4269 8.73093C10.616 8.13541 10.7116 7.48558 10.7116 6.78343C10.7116 6.04306 10.6099 5.36506 10.4086 4.75345C10.2073 4.14184 9.92459 3.61674 9.56466 3.17815C9.20269 2.74158 8.77362 2.40559 8.27947 2.16819C7.78329 1.93079 7.23424 1.8141 6.63638 1.8141C6.01006 1.8141 5.45084 1.94286 4.95466 2.19636C4.45848 2.45187 4.03348 2.79992 3.67761 3.24253C3.32174 3.68514 3.04925 4.20823 2.86014 4.80777C2.67102 5.40932 2.57544 6.05513 2.57544 6.74521C2.57544 7.48558 2.67509 8.15955 2.87844 8.76513C3.07976 9.37271 3.36242 9.89178 3.72235 10.3223C4.08228 10.7529 4.51136 11.0888 5.00754 11.3242C5.50575 11.5596 6.0548 11.6783 6.65266 11.6783Z" fill="black"/>
</svg>
