<svg width="8" height="13" viewBox="0 0 8 13" fill="none" xmlns="http://www.w3.org/2000/svg">
<path d="M3.95884 0.213133C4.54653 0.213133 5.08745 0.30769 5.58363 0.494794C6.07981 0.681899 6.50482 0.943443 6.86068 1.2754C7.21452 1.60937 7.49311 2.01376 7.69646 2.49259C7.89778 2.97141 7.99946 3.50255 7.99946 4.08197C7.99946 4.69961 7.88965 5.24886 7.66799 5.72768C7.44837 6.20651 7.14741 6.60888 6.76917 6.93481C6.3889 7.26274 5.9517 7.5102 5.45552 7.6792C4.95934 7.8482 4.43469 7.93471 3.88564 7.93471H2.03106V12.5681H0.121582V0.211121H3.95884V0.213133ZM3.94054 6.55657C4.57703 6.55657 5.07931 6.32119 5.44738 5.84638C5.81545 5.3756 5.99847 4.78612 5.99847 4.08398C5.99847 3.35769 5.79918 2.76017 5.40061 2.29542C5.00204 1.82867 4.48553 1.59529 3.84904 1.59529H2.03106V6.55657H3.94054Z" fill="black"/>
</svg>
