<svg width="10" height="13" viewBox="0 0 10 13" fill="none" xmlns="http://www.w3.org/2000/svg">
<path d="M7.63168 12.5701C7.37546 12.0369 7.0684 11.4696 6.71456 10.87C6.3587 10.2705 6.00487 9.71521 5.649 9.20822C5.29313 8.69922 4.9576 8.27874 4.63834 7.94476C4.31907 7.61079 4.06895 7.44381 3.88594 7.44381H2.65565V12.5681H0.744141V0.211121H4.56513C5.10402 0.211121 5.60223 0.297631 6.0618 0.466628C6.52138 0.635625 6.91589 0.875038 7.24532 1.18487C7.57678 1.49268 7.83707 1.8689 8.02619 2.31152C8.21531 2.75413 8.31088 3.24704 8.31088 3.79226C8.31088 4.55677 8.10957 5.2227 7.70489 5.79206C7.30022 6.36142 6.75524 6.76178 6.06994 6.99114C6.3892 7.22049 6.6922 7.53233 6.97893 7.92666C7.26769 8.32098 7.55238 8.73543 7.833 9.17201L8.05263 9.51805L9.72418 12.5721H7.63168V12.5701ZM4.46346 6.06366C4.75832 6.06366 5.02268 6.00331 5.25653 5.88259C5.49039 5.76188 5.68967 5.60093 5.85642 5.40175C6.02317 5.20258 6.14925 4.9692 6.23465 4.70162C6.3221 4.43606 6.3648 4.15037 6.3648 3.84859C6.3648 3.52065 6.3099 3.22088 6.19805 2.94928C6.08824 2.67567 5.93979 2.44028 5.75474 2.2411C5.56969 2.04193 5.35617 1.88299 5.10808 1.76831C4.86202 1.65363 4.59767 1.59529 4.31501 1.59529H2.65362V6.06567H4.46346V6.06366Z" fill="black"/>
</svg>
